# xmcd
#
# Track frame offsets:
#	150
#	21700
#	36064
#	45073
#	49536
#	62472
#	80366
#	94397
#	117634
#	120055
#	131107
#	135449
#	147793
#	159766
#	165059
#
# Disc length: 2364 seconds
#
# Revision: 1
# Processed by: cddbd v1.5.2PL0 Copyright (c) Steve Scherf et al.
# Submitted via: audiograbber 1.83.01
#
DISCID=b1093a0f
DTITLE=Bill "Sauce Boss" Wharton - Hot "N Heavy
DYEAR=2010
DGENRE=Blues
TTITLE0=Marquis de Swamp
TTITLE1=Rusty Blues
TTITLE2=Get Naked and Surf
TTITLE3=Okra
TTITLE4=Lonesome Rider
TTITLE5=That's How It Feels
TTITLE6=Gonna Be All Right
TTITLE7=Don't Know How To Tell You
TTITLE8=Hot Sauce
TTITLE9=Crazy Bout Ya Baby
TTITLE10=Andouille
TTITLE11=Old Dog Eared Copy
TTITLE12=Hot 'n Heavy
TTITLE13=Chicken In the Gumbo
TTITLE14=Somewhere Down The Road
EXTD=
EXTT0=
EXTT1=
EXTT2=
EXTT3=
EXTT4=
EXTT5=
EXTT6=
EXTT7=
EXTT8=
EXTT9=
EXTT10=
EXTT11=
EXTT12=
EXTT13=
EXTT14=
PLAYORDER=
